# xmcd
#
# Track frame offsets:
#	150
#	10562
#	24475
#	39000
#	50950
#	70538
#	87459
#	113600
#	133525
#	154384
#	166666
#	184363
#	202398
#	216235
#	235460
#	250812
#
# Disc length: 3634 seconds
#
# Revision: 2
# Processed by: cddbd v1.5.1PL0 Copyright (c) Steve Scherf et al.
# Submitted via: audiograbber 1.82.02
#
DISCID=db0e3010
DTITLE=Various Artist - Acoustic Rainbow 21
DYEAR=2005
DGENRE=Acoustic
TTITLE0=Don McLean - Ridin' Down The Canyon
TTITLE1=Holly Williams - Sometimes
TTITLE2=Jordan Chassan - Wound Up Way Too Tight
TTITLE3=Kacey Jones - Waitin' For The Guy To Die
TTITLE4=Chris Stuart - Rider On This Train
TTITLE5=Donal Hinely - These Are The Days
TTITLE6=Scott Ainslie - Don't Obey
TTITLE7=Dallas Jones - As Good As Home
TTITLE8=Fruit - Peace
TTITLE9=Erik Balkey - Give Love, Amen
TTITLE10=Stuart Rosh - Dreams They Share
TTITLE11=Reina G. Collins - Way Over Yonder In The Minor Key
TTITLE12=Pat Surface - Daddy's Chair
TTITLE13=Adam Zadok - Warpath
TTITLE14=Carol Ponder and John Knowles - In Our Hearts and On Our Knees
TTITLE15=Barry McLoughlin - Thing Called Love
EXTD=
EXTT0=
EXTT1=
EXTT2=
EXTT3=
EXTT4=
EXTT5=
EXTT6=
EXTT7=
EXTT8=
EXTT9=
EXTT10=
EXTT11=
EXTT12=
EXTT13=
EXTT14=
EXTT15=
PLAYORDER=
